<?xml version="1.0"?>
<svg width="194" height="190" xmlns="http://www.w3.org/2000/svg" xmlns:svg="http://www.w3.org/2000/svg">
 <g class="layer">
  <title>Layer 1</title>
  <g id="svg_1">
   <g id="svg_11">
    <path d="m97.221851,186.312331c-51.826803,0 -93.990226,-41.16723 -93.990226,-91.770328c0,-50.658631 42.163423,-91.874151 93.990226,-91.874151l1.524755,0l0,28.862937l-1.524755,0c-35.564404,0 -64.497612,28.266555 -64.497612,63.011215c0,34.686712 28.933207,62.909806 64.497612,62.909806l1.524755,0l0,28.771186l-1.024754,0c-0.128713,0.04829 -0.29703,0.089337 -0.500001,0.089337z" fill="#426A9A" id="svg_12"/>
    <path d="m97.50898,3.877516l0,26.448436c-0.096535,0 -0.19307,0 -0.287129,0c-36.148564,0 -65.735237,28.860522 -65.735237,64.218465c0,35.258948 29.586674,64.117056 65.735237,64.117056c0.09406,0 0.190594,0 0.287129,0l0,26.356685c-0.096535,0 -0.19307,0.089337 -0.287129,0.089337c-51.084227,0 -92.7526,-40.735035 -92.7526,-90.563078c0,-49.929452 41.668373,-90.666901 92.7526,-90.666901c0.09406,0 0.190594,0 0.287129,0m2.475251,-2.4145l-2.475251,0l-0.287129,0c-52.507497,0 -95.227851,41.756368 -95.227851,93.081402c0,51.267085 42.717879,92.977578 95.227851,92.977578c0.262377,0 0.49505,-0.038632 0.690595,-0.089337l2.071785,0l0,-2.4145l0,-26.356685l0,-2.4145l-2.475251,0l-0.287129,0c-34.881235,0 -63.259986,-27.679832 -63.259986,-61.702556c0,-34.078257 28.378751,-61.803965 63.259986,-61.803965l0.287129,0l2.475251,0l0,-2.4145l0,-26.448436l0,-2.4145l0,0z" fill="#FFFFFF" id="svg_13"/>
   </g>
   <g id="svg_14">
    <path d="m106.258992,156.874743l1.066833,-0.147285c7.190604,-0.980287 14.091603,-3.184726 20.509929,-6.552954l0.925744,-0.485315l18.143589,23.053649l-1.200497,0.692962c-11.727739,6.789575 -24.539637,10.930443 -38.079259,12.316366l-1.366338,0.142456l0,-29.019879zm29.262416,-11.345737l1.002477,-0.734008c4.408422,-3.220943 8.430704,-7.021367 11.955462,-11.297447l0.621288,-0.753324l26.821818,12.82824l-0.819308,1.154131c-5.646047,7.934048 -12.551997,14.986803 -20.527255,20.965106l-0.980199,0.736423l-18.074282,-22.899121zm18.10646,-19.289443l0.636139,-1.108256c4.467828,-7.784349 7.210406,-16.631078 7.935654,-25.579216l0.089109,-1.113085l29.655981,0l-0.071782,1.272442c-0.750001,13.446352 -4.509907,26.325297 -11.180708,38.279488l-0.569308,1.018919l-26.495085,-12.770292zm8.651002,-35.596978l-0.081683,-1.122743c-0.445545,-6.140074 -1.920795,-12.32361 -4.386145,-18.379176l-0.420793,-1.038235l26.552016,-12.748562l0.512377,1.173447c4.264857,9.75941 6.75991,20.134518 7.420802,30.835584l0.079208,1.279685l-29.675783,0zm-9.039616,-28.421083c-3.321787,-5.396408 -7.470307,-10.300258 -12.324274,-14.573924l-0.849011,-0.746081l17.945569,-22.865318l0.9901,0.82093c8.314368,6.886155 15.289625,15.078554 20.725275,24.355065l0.650991,1.11067l-26.552016,12.849971l-0.586634,-0.951313zm-20.445572,-20.672952c-7.722783,-4.841073 -16.532201,-8.052359 -25.470331,-9.286168l-1.064358,-0.147285l0,-29.019879l1.366338,0.137627c15.284674,1.547695 30.151031,6.847523 42.990157,15.329662l1.08416,0.717107l-17.948044,22.867732l-0.957922,-0.598796z" fill="#F8B716" id="svg_15"/>
    <path d="m107.496618,4.435266c15.601506,1.579083 30.061922,6.961004 42.4258,15.126844l-16.457943,20.969935c-7.700505,-4.826586 -16.552003,-8.16584 -25.965382,-9.464841l0,-26.631938m50.703039,21.344183c8.180704,6.772673 15.121308,14.940928 20.450523,24.033936l-24.351518,11.785176c-3.428222,-5.567838 -7.705456,-10.577926 -12.556948,-14.846762l16.457943,-20.97235m25.11142,33.22111c4.09159,9.370676 6.658425,19.673349 7.324267,30.434776l-27.205482,0c-0.477723,-6.589171 -2.094062,-12.898261 -4.472778,-18.741351l24.353993,-11.693425m7.324267,40.645698c-0.762377,13.641927 -4.663373,26.351856 -11.032193,37.770028l-24.262409,-11.69584c4.472778,-7.796422 7.329218,-16.703513 8.08912,-26.074189l27.205482,0m-41.193125,34.609448l24.641122,11.785176c-5.613869,7.890587 -12.462888,14.849177 -20.264879,20.694682l-16.554478,-20.974764c4.569313,-3.336839 8.660903,-7.236257 12.178234,-11.505094m-21.024781,16.983595l16.653488,21.160681c-11.222787,6.492591 -23.977755,10.761428 -37.576783,12.15218l0,-26.627109c7.512386,-1.026163 14.554475,-3.344083 20.923296,-6.685751m-23.398546,-149.484129l0,2.677681l0,26.631938l0,2.098201l2.128716,0.294569c8.762388,1.209665 17.398538,4.358173 24.972806,9.105081l1.918319,1.202421l1.38614,-1.765l16.457943,-20.969935l1.596537,-2.033009l-2.17327,-1.434213c-13.009919,-8.590792 -28.07182,-13.960641 -43.556989,-15.530066l-2.730202,-0.277668l0,0zm52.797101,20.540154l-1.584161,2.016108l-16.457943,20.97235l-1.388616,1.767414l1.695547,1.492161c4.767333,4.191573 8.83417,9.003672 12.094076,14.296256l1.178219,1.90987l2.044557,-0.989945l24.351518,-11.785176l2.351488,-1.139644l-1.301982,-2.22134c-5.507433,-9.39965 -12.571799,-17.700702 -20.995078,-24.676193l-1.987626,-1.64186l0,0zm26.747561,33.411855l-2.344063,1.127572l-24.353993,11.693425l-2.051983,0.985116l0.844061,2.071641c2.420795,5.939671 3.868817,12.004896 4.304461,18.019416l0.160891,2.245485l2.306934,0l27.205482,0l2.631192,0l-0.158416,-2.561785c-0.670793,-10.836277 -3.198024,-21.346597 -7.517337,-31.236391l-1.027229,-2.34448l0,0zm8.685655,41.524576l-2.613865,0l-27.205482,0l-2.287132,0l-0.180693,2.223755c-0.710397,8.779123 -3.400995,17.454423 -7.782189,25.086658l-1.272279,2.218926l2.334162,1.125157l24.262409,11.69584l2.133666,1.028577l1.13614,-2.040253c6.757435,-12.111134 10.571796,-25.161508 11.329223,-38.788948l0.14604,-2.549712l0,0zm-44.495109,34.005822l-1.240101,1.504234c-3.457925,4.196402 -7.408426,7.926805 -11.732689,11.087385l-2.007428,1.468016l1.529705,1.938844l16.554478,20.974764l1.507428,1.90987l1.960399,-1.468016c8.076744,-6.053152 15.071802,-13.197659 20.787157,-21.233116l1.641091,-2.308262l-2.584162,-1.236224l-24.641122,-11.785176l-1.774755,-0.852319l0,0zm-19.653492,16.903917l-1.853963,0.970629c-6.287137,3.298207 -13.047047,5.459185 -20.094086,6.420156l-2.131191,0.28974l0,2.100615l0,26.627109l0,2.680095l2.732677,-0.280082c13.715365,-1.402825 26.695581,-5.599226 38.57926,-12.475723l2.400993,-1.388338l-1.700497,-2.160978l-16.653488,-21.160681l-1.279705,-1.622544l0,0z" fill="#FFFFFF" id="svg_16"/>
   </g>
   <g id="svg_17">
    <path d="m97.50898,145.951544c-29.06192,0 -52.705517,-23.060893 -52.705517,-51.407126c0,-28.399353 23.643596,-51.503706 52.705517,-51.503706l1.237625,0l0.188119,1.20725l0,15.868096l-1.237625,0c-19.596561,0 -35.386186,15.443144 -35.386186,34.42836c0,18.929682 15.789625,34.33178 35.198067,34.33178l1.237625,0l0.188119,1.20725l0,15.868096l-1.425744,0z" fill="#446B9B" id="svg_18"/>
    <path d="m97.697099,44.247961l0,14.660846c0,0 -0.096535,0 -0.188119,0c-19.97775,0 -36.435693,15.962262 -36.435693,35.63561c0,19.576769 16.457943,35.53903 36.435693,35.53903c0.091584,0 0.188119,0 0.188119,0l0,14.660846c0,0 -0.096535,0 -0.188119,0c-28.257464,0 -51.467891,-22.549018 -51.467891,-50.199876c0,-27.747438 23.210427,-50.296456 51.467891,-50.296456c0.091584,0 0.188119,0 0.188119,0m2.475251,-2.4145l-2.475251,0l-0.188119,0c-29.74509,0 -53.943142,23.645202 -53.943142,52.710956c0,29.012636 24.198052,52.614376 53.943142,52.614376l0.188119,0l2.475251,0l0,-2.4145l0,-14.660846l0,-2.4145l-2.475251,0l-0.188119,0c-18.725273,0 -33.960442,-14.858835 -33.960442,-33.12453c0,-18.318814 15.235169,-33.22111 33.960442,-33.22111l0.188119,0l2.475251,0l0,-2.4145l0,-14.660846l0,-2.4145l0,0z" fill="#FFFFFF" id="svg_19"/>
   </g>
   <g id="svg_20">
    <path d="m98.080763,120.338524c-14.529723,0 -26.351521,-11.5727 -26.351521,-25.796521c0,-14.22865 11.819323,-25.803765 26.351521,-25.803765l1.237625,0l0.091584,1.20725l0,8.351757l-1.237625,0c-9.220309,0 -16.646062,7.286962 -16.646062,16.244758c0,8.902263 7.425753,16.143349 16.554478,16.143349l1.237625,0l0.091584,1.20725l0,8.445922l-1.32921,0z" fill="#446B9B" id="svg_21"/>
    <path d="m98.172348,69.947903l0,7.144506c-0.091584,0 -0.091584,0 -0.091584,0c-9.799518,0 -17.792103,7.893002 -17.792103,17.452008c0,9.554178 7.992585,17.350599 17.792103,17.350599c0,0 0,0 0.091584,0l0,7.238672c-0.091584,0 -0.091584,0 -0.091584,0c-13.797048,0 -25.113895,-11.04151 -25.113895,-24.589271c0,-13.55259 11.319322,-24.596515 25.113895,-24.596515c0,0 0,0 0.091584,0m2.475251,-2.4145l-2.566835,0c-15.212892,0 -27.589146,12.118377 -27.589146,27.011015c0,14.890223 12.376254,27.003772 27.589146,27.003772l2.475251,0l0.091584,-2.4145l0,-7.238672l0,-2.4145l-2.475251,0c-8.53714,0 -15.408437,-6.697824 -15.408437,-14.936099c0,-8.291394 6.868821,-15.037508 15.316852,-15.037508l2.475251,0l0.091584,-2.4145l0,-7.144506l0,-2.4145l0,0z" fill="#FFFFFF" id="svg_22"/>
   </g>
   <g id="svg_23">
    <path d="m106.447111,43.714357l1.472774,0.275253c24.779736,4.643084 42.762434,25.905174 42.762434,50.554808c0,24.598929 -17.985173,45.817558 -42.764909,50.455813l-1.470299,0.275253l0,-101.561127z" fill="#F8B716" id="svg_24"/>
    <path d="m107.684737,45.17513c23.77726,4.454753 41.759957,24.869353 41.759957,49.369288c0,24.403355 -17.982698,44.820369 -41.759957,49.270293c0,-33.035193 0,-65.512637 0,-98.639581m-2.475251,-2.92396l0,2.921545l0,98.639581l0,2.921545l2.940598,-0.550506c25.36142,-4.749322 43.769861,-26.467752 43.769861,-51.643747c0,-25.226699 -18.408441,-46.988591 -43.769861,-51.740327l-2.940598,-0.548092l0,0z" fill="#FFFFFF" id="svg_25"/>
   </g>
   <g id="svg_26">
    <path d="m97.793634,105.025763c-5.930701,0 -10.75249,-4.701032 -10.75249,-10.48376c0,-5.835847 4.821789,-10.585169 10.75249,-10.585169l1.237625,0l0.188119,1.20725l0,19.86168l-1.425744,0z" fill="#446B9B" id="svg_27"/>
    <path d="m97.981753,85.166498l0,18.654429c-0.096535,0 -0.188119,0 -0.188119,0c-5.23268,0 -9.514864,-4.174671 -9.514864,-9.27651c0,-5.106668 4.279709,-9.377919 9.514864,-9.377919c0,0 0.091584,0 0.188119,0m2.475251,-2.4145l-2.475251,0l-0.188119,0c-6.611395,0 -11.990115,5.287756 -11.990115,11.79242c0,6.446716 5.37872,11.691011 11.990115,11.691011l0.188119,0l2.475251,0l0,-2.4145l0,-18.654429l0,-2.4145l0,0z" fill="#FFFFFF" id="svg_28"/>
   </g>
  </g>
 </g>
</svg>